Coordinates
version=1
nRows=54
nColumns=12
inDegrees=yes

Units are S.I. units (second, meters, Newtons, ...)
Angles are in degrees

endheader
time	SC_y	SC_z	SC_x	AC_y	AC_z	AC_x	GH_y	GH_z	GH_yy	EL_x	PS_y
       0.0              -12.25           18.5          59.17          30.64         -6.384         -18.99          117.1           4.36         -141.3          40.54          151.5
   0.03869              -12.25          18.49          59.17          30.64         -6.381         -18.99          117.1          4.367         -141.3          40.54          151.5
   0.07737              -12.25          18.49          59.18          30.64         -6.379         -18.98          117.1          4.374         -141.3          40.54          151.5
    0.1161              -12.25          18.49          59.18          30.65         -6.376         -18.98          117.0          4.381         -141.3          40.54          151.5
    0.1547              -12.25          18.49          59.18          30.65         -6.373         -18.97          117.0          4.389         -141.3          40.54          151.5
    0.1934              -12.25          18.49          59.19          30.65          -6.37         -18.96          116.9          4.398         -141.2          40.54          151.5
    0.2321              -12.25          18.49          59.19          30.65         -6.367         -18.96          116.9          4.406         -141.2          40.54          151.5
    0.2708              -12.25          18.48           59.2          30.66         -6.364         -18.95          116.8          4.416         -141.2          40.54          151.5
    0.3095              -12.26          18.48           59.2          30.66          -6.36         -18.94          116.7          4.426         -141.2          40.54          151.5
    0.3482              -12.26          18.48          59.21          30.66         -6.356         -18.93          116.7          4.437         -141.1          40.54          151.5
    0.3869              -12.26          18.48          59.21          30.66         -6.352         -18.92          116.6          4.449         -141.1          40.54          151.5
    0.4255              -12.26          18.47          59.22          30.67         -6.347         -18.91          116.5          4.462         -141.1          40.54          151.5
    0.4642              -12.26          18.47          59.23          30.67         -6.342          -18.9          116.5          4.476         -141.0          40.54          151.5
    0.5029              -12.26          18.47          59.23          30.67         -6.337         -18.89          116.4           4.49         -141.0          40.54          151.5
    0.5416              -12.26          18.47          59.24          30.68         -6.331         -18.88          116.3          4.507         -141.0          40.54          151.4
    0.5803              -12.26          18.46          59.25          30.68         -6.325         -18.86          116.2          4.524         -140.9          40.54          151.4
     0.619              -12.26          18.46          59.26          30.69         -6.318         -18.85          116.0          4.543         -140.9          40.54          151.4
    0.6577              -12.26          18.45          59.27          30.69         -6.311         -18.83          115.9          4.563         -140.8          40.54          151.4
    0.6963              -12.26          18.45          59.28           30.7         -6.303         -18.81          115.8          4.586         -140.8          40.54          151.4
     0.735              -12.26          18.44          59.29          30.71         -6.294         -18.79          115.6          4.611         -140.7          40.54          151.4
    0.7737              -12.26          18.44           59.3          30.71         -6.284         -18.77          115.5          4.638         -140.6          40.54          151.3
    0.8124              -12.26          18.43          59.32          30.72         -6.274         -18.75          115.3          4.667         -140.6          40.54          151.3
    0.8511              -12.26          18.43          59.33          30.73         -6.262         -18.72          115.1            4.7         -140.5          40.54          151.3
    0.8898              -12.26          18.42          59.35          30.74         -6.249         -18.69          114.9          4.737         -140.4          40.54          151.3
    0.9285              -12.26          18.41          59.37          30.75         -6.234         -18.66          114.6          4.777         -140.3          40.54          151.2
    0.9671              -12.26           18.4          59.39          30.76         -6.218         -18.62          114.4          4.822         -140.2          40.54          151.2
     1.006              -12.26          18.39          59.42          30.77           -6.2         -18.58          114.1          4.873         -140.1          40.54          151.2
     1.045              -12.26          18.38          59.44          30.79          -6.18         -18.53          113.7           4.93         -139.9          40.54          151.1
     1.083              -12.26          18.37          59.47           30.8         -6.157         -18.48          113.3          4.994         -139.8          40.54          151.1
     1.122              -12.27          18.35          59.51          30.82         -6.131         -18.42          112.9          5.067         -139.6          40.54          151.0
     1.161              -12.27          18.34          59.55          30.84         -6.101         -18.35          112.4          5.151         -139.4          40.54          151.0
     1.199              -12.27          18.32           59.6          30.87         -6.066         -18.28          111.8          5.247         -139.1          40.53          150.9
     1.238              -12.27          18.29          59.65           30.9         -6.027         -18.19          111.2          5.357         -138.9          40.53          150.8
     1.277              -12.27          18.27          59.71          30.93         -5.981         -18.08          110.4          5.485         -138.6          40.53          150.7
     1.315              -12.28          18.24          59.78          30.97         -5.927         -17.96          109.5          5.636         -138.2          40.53          150.6
     1.354              -12.28           18.2          59.87          31.01         -5.864         -17.82          108.4          5.813         -137.8          40.53          150.5
     1.393              -12.28          18.16          59.97          31.07         -5.788         -17.65          107.2          6.023         -137.2          40.52          150.3
     1.431              -12.29          18.11          60.09          31.13         -5.698         -17.45          105.7          6.275         -136.6          40.52          150.1
      1.47              -12.29          18.05          60.23          31.21         -5.589          -17.2          103.8          6.581         -135.9          40.52          149.9
     1.509               -12.3          17.97          60.41          31.31         -5.455          -16.9          101.6          6.954         -135.0          40.51          149.6
     1.547              -12.31          17.88          60.63          31.43         -5.291         -16.53          98.84          7.414         -133.8          40.51          149.3
     1.586              -12.32          17.76          60.91          31.57         -5.085         -16.06           95.4          7.988         -132.4           40.5          148.9
     1.625              -12.33          17.61          61.25          31.76         -4.827         -15.48          91.07           8.71         -130.6          40.49          148.3
     1.663              -12.34          17.43          61.69           32.0         -4.498         -14.74          85.56          9.629         -128.4          40.48          147.7
     1.702              -12.36          17.19          62.26           32.3         -4.077         -13.79          78.51          10.81         -125.5          40.47          146.8
     1.741              -12.39          16.88          62.98          32.69         -3.536         -12.57          69.46          12.31         -121.8          40.45          145.7
      1.78              -12.42          16.49           63.9          33.18         -2.846         -11.01           57.9          14.24         -117.0          40.43          144.3
     1.818              -12.47           16.0          65.06          33.81         -1.978         -9.052          43.37          16.67         -111.1           40.4          142.5
     1.857              -12.52           15.4          66.48          34.57         -0.921         -6.665          25.66          19.62         -103.8          40.36          140.3
     1.896              -12.57          14.71          68.12          35.45         0.3047         -3.899          5.134          23.05         -95.41          40.32          137.8
     1.934              -12.64          13.96          69.89           36.4          1.632        -0.9034         -17.09          26.75         -86.29          40.28          135.1
     1.973               -12.7          13.21          71.67          37.35          2.959          2.092         -39.32          30.46         -77.18          40.23          132.4
     2.012              -12.76          12.51           73.3          38.24          4.185          4.858         -59.85          33.88         -68.77          40.19          129.9
      2.05              -12.81          11.92          74.72           39.0          5.242          7.245         -77.55          36.84         -61.51          40.15          127.7
